<svg height="512" viewBox="0 0 58 54" width="512" xmlns="http://www.w3.org/2000/svg"><g id="Page-1" fill="none" fill-rule="evenodd"><g id="022---Acorns" fill-rule="nonzero"><path id="Shape" d="m17.7 47.24c-1.85.54-3.9.6-5.56 1.69-.1251907.082149-.2423738.1758955-.35.28-.2760795.2996348-.5364293.6133898-.78.94-.2372485.2782573-.6082284.4036078-.965627.3262759-.35739855-.0773318-.64337589-.3448309-.744373-.6962759-.95-3.43-4.35-3.13-7.75-10.78-2.13484258-5.0167784-2.02935538-10.7058122.29-15.64l-.01-.02c.24-.12.5-.24.72-.34 2.91-1.28 9.73-3.31 17.94 1.37-1.7859596 2.5838589-2.977804 5.531027-3.49 8.63v.02c-.9619627-.4504435-1.9670978-.8022408-3-1.05-1.293681-.3706648-2.668174-.3497864-3.95.06-.99049223.4147078-1.82138522 1.1369186-2.37 2.06-.47266164.6316579-.70006773 1.4133663-.64 2.2.25 1.12 1.48.65 2.2.34 1.0201709-.4562208 2.0961483-.7756516 3.2-.95 1.3664611-.2283802 2.7634347-.2012545 4.12.08-.67 5.27-.09 8.93 1.14 11.48z" fill="#f29c1f"/><path id="Shape" d="m33.46 21.4c-6.53-2.35-10.53-.25-12.97 2.97-8.21-4.68-15.03-2.65-17.94-1.37-.22.1-.48.22-.72.34-.05.02-.1.05-.15.07-.28440586.1445619-.62072016.1447424-.90528104.0004859-.28456087-.1442566-.48321038-.415634-.53471896-.7304859-.69-4.37.18-14.57 15.31-13.68.39.02.77.05 1.14.09 1.0334701.08945997 2.0615451.23298992 3.08.43 11.03 2.17 13.27 9.7 13.69 11.88z" fill="#805333"/><path id="Shape" d="m57.56 42.71c-2.2375189 1.3095917-4.1407377 3.120388-5.56 5.29-2.91 4.85-13.35 6.88-22.19 4.25.39-1.7-.81-6.27-.81-13.25 0-7.03 4.88-12.84 7.02-15.05.01-.01.02-.02.02-.03l.96.08s12 1 16 9c2.94 5.87 4.05 7.43 4.76 8.25.1840166.213546.2675.4958163.2292417.7751016-.0382582.2792854-.194576.5287061-.4292417.6848984z" fill="#f29c1f"/><path id="Shape" d="m36.04 23.92c0 .01-.01.02-.02.03-2.14 2.21-7.02 8.02-7.02 15.05 0 6.98 1.2 11.55.81 13.25-.11.5-.36.75-.81.75-1.36 0-8.29.56-11.3-5.76-1.23-2.55-1.81-6.21-1.14-11.48.11-.87.25-1.78.44-2.74v-.02c.512196-3.098973 1.7040404-6.0461411 3.49-8.63 2.44-3.22 6.44-5.32 12.97-2.97.72.26 1.47.58 2.26.95.2830933.1366727.4861202.3977079.5489024.7057333.0627823.3080254-.0218837.6276985-.2289024.8642667z" fill="#a56a43"/><path id="Shape" d="m25.15 3.33c-1.0792713.68547762-2.0642863 1.50912492-2.93 2.45-1.0207875 1.10032346-1.8490306 2.36466198-2.45 3.74-1.0184549-.19701008-2.0465299-.34054003-3.08-.43.1709642-1.42301549.5030953-2.82199197.99-4.17.4685634-1.47051478 1.3587414-2.77100921 2.56-3.74 1.0310515-.67515169 2.248912-1.0076136 3.48-.95.9030343-.04862225 1.793576.22811977 2.51.78.91.96-.32 1.84-1.08 2.32z" fill="#603e26"/><path id="Shape" d="m17 33.02c-.19.96-.33 1.87-.44 2.74-1.3565653-.2812545-2.7535389-.3083802-4.12-.08-1.1038517.1743484-2.1798291.4937792-3.2.95-.72.31-1.95.78-2.2-.34-.06006773-.7866337.16733836-1.5683421.64-2.2.54861478-.9230814 1.37950777-1.6452922 2.37-2.06 1.281826-.4097864 2.656319-.4306648 3.95-.06 1.0329022.2477592 2.0380373.5995565 3 1.05z" fill="#805333"/><path id="Shape" d="m49.423 35.789c-.3808256.0020788-.7297741-.2123306-.9-.553-2.209-4.419-9.374-6.012-11.949-6.254-.537481-.0613698-.9287086-.5390433-.8829771-1.0780801.0457316-.5390369.5118393-.9439745 1.0519771-.9139199.1.008 10.394 1 13.569 7.352.1548588.3099025.1382854.6778792-.0438055.9726057-.1820908.2947265-.5037544.4742093-.8501945.4743943z" fill="#fac176"/><path id="Shape" d="m4.371 19.155c-.0857226-.0001979-.17107271-.0112867-.254-.033-.25739598-.0665307-.47770478-.232818-.61224447-.4621172-.13453968-.2292992-.1722347-.5027338-.10475553-.7598828.28131234-1.1436814.83660955-2.2017663 1.618-3.083 1.727-1.9 4.675-2.87 8.764-2.87.5522847 0 1 .4477153 1 1s-.4477153 1-1 1c-2.407 0-5.623.384-7.283 2.214-.56418367.6431003-.96394712 1.4134599-1.165 2.245-.11388852.4392369-.50924402.7467356-.963.749z" fill="#a56a43"/></g></g></svg>