<?xml version="1.0" encoding="iso-8859-1"?>
<!-- Generator: Adobe Illustrator 19.0.0, SVG Export Plug-In . SVG Version: 6.00 Build 0)  -->
<svg version="1.1" id="Capa_1" xmlns="http://www.w3.org/2000/svg" xmlns:xlink="http://www.w3.org/1999/xlink" x="0px" y="0px"
	 viewBox="0 0 464 464" style="enable-background:new 0 0 464 464;" xml:space="preserve">
<path style="fill:#ADF0FF;" d="M0,0v72l24,56L8,200l24,48l-8,88l24,64l24-72l-8-64l8-64l-8-48l16-72l24,8l16,56l-8,80l16,64l-8,72
	l16,40l16,64l16-56l-8-56l16-72l-16-72l8-64l16-64l48-24l24,48l-8,56l24,48l-8,96l24,64l24-56l-8-56l16-64l-16-64l24-48l32-8l32,48
	l-16,48l16,96l-8,56l24,72l24-80l-8-72l16-64l-8-88l32-32V0H0z"/>
<g>
	<path style="fill:#75E6FF;" d="M464,0l-16,40l-40,16l16,104l-16,104l8,56l-8,72l24-80l-8-72l16-64l-8-88l32-32V0z"/>
	<path style="fill:#75E6FF;" d="M360,72l-40,8l-32,32l16,72l-8,72l8,40l-16,72l24-56l-8-56l16-64l-16-64l24-48L360,72z"/>
	<path style="fill:#75E6FF;" d="M232,56l-64,16l-24,24l8,40l-8,96l8,80l-16,32l24,56l-8,64l16-56l-8-56l16-72l-16-72l8-64l16-64
		L232,56z"/>
	<path style="fill:#75E6FF;" d="M80,80l-32,40l8,72l-8,56l8,40l-8,56v56l24-72l-8-64l8-64l-8-48L80,80z"/>
</g>
<g>
</g>
<g>
</g>
<g>
</g>
<g>
</g>
<g>
</g>
<g>
</g>
<g>
</g>
<g>
</g>
<g>
</g>
<g>
</g>
<g>
</g>
<g>
</g>
<g>
</g>
<g>
</g>
<g>
</g>
</svg>
